<?xml version="1.0" standalone="no"?>
<!DOCTYPE svg PUBLIC "-//W3C//DTD SVG 20010904//EN"
 "http://www.w3.org/TR/2001/REC-SVG-20010904/DTD/svg10.dtd">
<svg version="1.0" xmlns="http://www.w3.org/2000/svg"
 width="700.000000pt" height="700.000000pt" viewBox="0 0 700.000000 700.000000"
 preserveAspectRatio="xMidYMid meet">
<metadata>
Created by potrace 1.14, written by Peter Selinger 2001-2017
</metadata>
<g transform="translate(0.000000,700.000000) scale(0.100000,-0.100000)"
fill="#000000" stroke="none">
<path d="M2002 6974 c-826 -90 -1439 -511 -1772 -1218 -275 -581 -258 -1312
44 -1941 229 -477 575 -806 1061 -1008 366 -152 825 -181 1272 -81 429 96 730
258 1024 553 168 168 282 323 394 535 52 97 53 98 68 75 8 -13 129 -242 270
-509 217 -413 423 -802 506 -955 11 -22 21 -47 21 -55 0 -14 -149 -166 -325
-330 -44 -41 -276 -262 -515 -490 -239 -229 -515 -492 -612 -585 -98 -93 -182
-180 -187 -194 -18 -44 -31 -114 -31 -167 0 -57 22 -94 70 -119 17 -9 440 -77
982 -159 524 -80 1196 -182 1493 -227 297 -45 565 -82 596 -83 60 -1 97 16
125 59 23 36 174 1026 174 1144 0 102 -40 127 -241 155 -119 17 -162 11 -197
-27 -12 -13 -51 -101 -86 -197 -35 -96 -81 -218 -101 -271 l-36 -95 -147 22
c-81 12 -466 70 -857 129 -390 59 -712 109 -714 111 -2 2 52 56 120 121 68 65
250 240 404 389 154 149 419 403 588 565 306 291 309 294 304 329 -3 19 -176
372 -386 784 -209 412 -379 751 -377 754 6 5 1280 -185 1328 -198 20 -6 39
-14 42 -18 5 -9 30 -210 56 -465 11 -109 25 -208 31 -219 6 -11 30 -28 53 -39
53 -23 247 -53 295 -45 43 7 76 38 96 90 16 44 155 943 155 1005 0 46 -34 100
-74 120 -16 7 -68 20 -115 27 -81 14 -1424 216 -2151 325 -184 27 -348 52
-363 55 l-28 6 7 126 c21 416 -141 983 -382 1339 -347 511 -880 826 -1494 882
-144 14 -232 12 -388 -5z m196 -524 c265 -34 502 -159 727 -384 290 -291 460
-641 530 -1086 26 -164 31 -441 11 -583 -103 -735 -535 -1170 -1197 -1204
-431 -22 -837 211 -1133 650 -211 315 -339 730 -353 1152 -15 471 123 860 399
1121 177 168 412 280 668 318 186 28 234 30 348 16z"/>
<path d="M2685 5764 c-99 -18 -133 -38 -162 -94 -20 -40 -23 -66 -29 -232 -4
-104 -10 -188 -15 -188 -4 0 -180 -36 -390 -80 -211 -44 -395 -80 -410 -80
-14 0 -33 8 -42 18 -8 9 -46 82 -84 162 -98 206 -139 236 -281 205 -42 -9 -89
-21 -104 -27 -32 -12 -88 -91 -88 -123 0 -11 53 -282 119 -600 65 -319 122
-598 126 -620 8 -46 77 -120 122 -131 16 -4 66 2 123 14 161 37 180 75 180
363 l0 169 28 11 c15 6 200 46 412 89 l385 79 21 -22 c12 -12 52 -89 89 -172
37 -82 74 -160 82 -172 8 -12 39 -34 69 -49 l53 -26 97 21 c107 23 131 38 160
102 17 40 17 43 -5 167 -68 373 -232 1139 -249 1161 -47 63 -93 76 -207 55z"/>
</g>
</svg>
